<svg width="524.0000366210937px" height="206px" xmlns="http://www.w3.org/2000/svg" viewBox="-12.000018310546864 -28 524.0000366210937 206" style="background: rgba(0, 0, 0, 0);" preserveAspectRatio="xMidYMid"><defs><linearGradient id="editing-outline-gradient" x1="0.2580781044003325" x2="0.7419218955996675" y1="1.4702957262759966" y2="-0.4702957262759966"><stop offset="0" stop-color="#ab142c"></stop><stop offset="1" stop-color="#0d0400"></stop></linearGradient><filter id="editing-outline" x="-100%" y="-100%" width="300%" height="300%"><feMorphology in="SourceGraphic" operator="dilate" radius="8" result="outline"></feMorphology><feComposite operator="out" in="outline" in2="SourceAlpha"></feComposite></filter></defs><g filter="url(#editing-outline)"><g transform="translate(62.954967975616455, 112.46000099182129)"><path d="M79.88-22.05L79.88-22.05L79.88-22.05Q79.88-18.02 78.87-14.81L78.87-14.81L78.87-14.81Q77.85-11.60 76.17-9.14L76.17-9.14L76.17-9.14Q74.50-6.69 72.26-4.96L72.26-4.96L72.26-4.96Q70.01-3.24 67.61-2.14L67.61-2.14L67.61-2.14Q65.20-1.04 62.72-0.52L62.72-0.52L62.72-0.52Q60.24 0 58.05 0L58.05 0L5.64 0L5.64-13.58L58.05-13.58L58.05-13.58Q61.96-13.58 64.13-15.88L64.13-15.88L64.13-15.88Q66.30-18.18 66.30-22.05L66.30-22.05L66.30-22.05Q66.30-23.93 65.73-25.50L65.73-25.50L65.73-25.50Q65.15-27.06 64.08-28.21L64.08-28.21L64.08-28.21Q63.01-29.36 61.47-29.99L61.47-29.99L61.47-29.99Q59.93-30.62 58.05-30.62L58.05-30.62L26.80-30.62L26.80-30.62Q23.51-30.62 19.70-31.79L19.70-31.79L19.70-31.79Q15.88-32.97 12.62-35.58L12.62-35.58L12.62-35.58Q9.35-38.19 7.18-42.42L7.18-42.42L7.18-42.42Q5.02-46.66 5.02-52.77L5.02-52.77L5.02-52.77Q5.02-58.88 7.18-63.09L7.18-63.09L7.18-63.09Q9.35-67.29 12.62-69.93L12.62-69.93L12.62-69.93Q15.88-72.57 19.70-73.75L19.70-73.75L19.70-73.75Q23.51-74.92 26.80-74.92L26.80-74.92L73.04-74.92L73.04-61.34L26.80-61.34L26.80-61.34Q22.94-61.34 20.77-58.99L20.77-58.99L20.77-58.99Q18.60-56.63 18.60-52.77L18.60-52.77L18.60-52.77Q18.60-48.85 20.77-46.58L20.77-46.58L20.77-46.58Q22.94-44.30 26.80-44.30L26.80-44.30L58.05-44.30L58.15-44.30L58.15-44.30Q60.34-44.25 62.80-43.70L62.80-43.70L62.80-43.70Q65.26-43.16 67.68-42.01L67.68-42.01L67.68-42.01Q70.11-40.86 72.31-39.11L72.31-39.11L72.31-39.11Q74.50-37.36 76.20-34.90L76.20-34.90L76.20-34.90Q77.90-32.44 78.89-29.26L78.89-29.26L78.89-29.26Q79.88-26.07 79.88-22.05ZM104.86-74.92L104.86 0L91.27 0L91.27-74.92L104.86-74.92ZM160.76-37.46L199.27 0L179.99 0L149.42-30.62L139.86-30.62L139.86-44.30L149.42-44.30L179.99-74.92L199.27-74.92L160.76-37.46ZM134.43-74.92L134.43 0L120.85 0L120.85-74.92L134.43-74.92ZM281.29-68.08L281.29 0L267.71 0L267.71-18.39L219.96-18.39L219.96 0L206.37 0L206.37-37.46L206.37-37.46Q206.37-45.66 209.19-52.56L209.19-52.56L209.19-52.56Q212.01-59.46 217.03-64.42L217.03-64.42L217.03-64.42Q222.05-69.38 228.89-72.15L228.89-72.15L228.89-72.15Q235.73-74.92 243.83-74.92L243.83-74.92L274.45-74.92L274.45-74.92Q275.86-74.92 277.11-74.40L277.11-74.40L277.11-74.40Q278.37-73.88 279.31-72.94L279.31-72.94L279.31-72.94Q280.25-72.00 280.77-70.74L280.77-70.74L280.77-70.74Q281.29-69.49 281.29-68.08L281.29-68.08ZM219.96-37.46L219.96-31.97L267.71-31.97L267.71-61.34L243.83-61.34L243.83-61.34Q243.21-61.34 241.19-61.15L241.19-61.15L241.19-61.15Q239.18-60.97 236.54-60.24L236.54-60.24L236.54-60.24Q233.91-59.51 230.98-57.99L230.98-57.99L230.98-57.99Q228.05-56.48 225.60-53.81L225.60-53.81L225.60-53.81Q223.14-51.15 221.55-47.15L221.55-47.15L221.55-47.15Q219.96-43.16 219.96-37.46L219.96-37.46ZM369.07-22.05L369.07-22.05L369.07-22.05Q369.07-18.02 368.05-14.81L368.05-14.81L368.05-14.81Q367.03-11.60 365.36-9.14L365.36-9.14L365.36-9.14Q363.69-6.69 361.44-4.96L361.44-4.96L361.44-4.96Q359.19-3.24 356.79-2.14L356.79-2.14L356.79-2.14Q354.39-1.04 351.90-0.52L351.90-0.52L351.90-0.52Q349.42 0 347.23 0L347.23 0L294.82 0L294.82-13.58L347.23-13.58L347.23-13.58Q351.15-13.58 353.31-15.88L353.31-15.88L353.31-15.88Q355.48-18.18 355.48-22.05L355.48-22.05L355.48-22.05Q355.48-23.93 354.91-25.50L354.91-25.50L354.91-25.50Q354.33-27.06 353.26-28.21L353.26-28.21L353.26-28.21Q352.19-29.36 350.65-29.99L350.65-29.99L350.65-29.99Q349.11-30.62 347.23-30.62L347.23-30.62L315.98-30.62L315.98-30.62Q312.69-30.62 308.88-31.79L308.88-31.79L308.88-31.79Q305.06-32.97 301.80-35.58L301.80-35.58L301.80-35.58Q298.53-38.19 296.37-42.42L296.37-42.42L296.37-42.42Q294.20-46.66 294.20-52.77L294.20-52.77L294.20-52.77Q294.20-58.88 296.37-63.09L296.37-63.09L296.37-63.09Q298.53-67.29 301.80-69.93L301.80-69.93L301.80-69.93Q305.06-72.57 308.88-73.75L308.88-73.75L308.88-73.75Q312.69-74.92 315.98-74.92L315.98-74.92L362.22-74.92L362.22-61.34L315.98-61.34L315.98-61.34Q312.12-61.34 309.95-58.99L309.95-58.99L309.95-58.99Q307.78-56.63 307.78-52.77L307.78-52.77L307.78-52.77Q307.78-48.85 309.95-46.58L309.95-46.58L309.95-46.58Q312.12-44.30 315.98-44.30L315.98-44.30L347.23-44.30L347.33-44.30L347.33-44.30Q349.53-44.25 351.98-43.70L351.98-43.70L351.98-43.70Q354.44-43.16 356.87-42.01L356.87-42.01L356.87-42.01Q359.30-40.86 361.49-39.11L361.49-39.11L361.49-39.11Q363.69-37.36 365.38-34.90L365.38-34.90L365.38-34.90Q367.08-32.44 368.07-29.26L368.07-29.26L368.07-29.26Q369.07-26.07 369.07-22.05Z" fill="url(#editing-outline-gradient)"></path></g></g><style>text {
  font-size: 64px;
  font-family: Arial Black;
  dominant-baseline: central;
  text-anchor: middle;
}</style></svg>